<svg width="750" height="219" viewBox="0 0 750 219" fill="none" xmlns="http://www.w3.org/2000/svg">
<g filter="url(#filter0_d_49_3)">
<path d="M98.3335 131.333C112.141 131.333 123.333 120.14 123.333 106.333C123.333 92.5262 112.141 81.3333 98.3335 81.3333C84.5264 81.3333 73.3335 92.5262 73.3335 106.333C73.3335 120.14 84.5264 131.333 98.3335 131.333Z" fill="#F24E1E"/>
<path d="M164 39.6667H137.583L127.25 28.4167C125.697 26.7116 123.805 25.3492 121.696 24.4166C119.587 23.4839 117.306 23.0014 115 23H79.6667C75 23 70.5 25 67.3333 28.4167L57.0833 39.6667H30.6667C21.5 39.6667 14 47.1667 14 56.3333L21.5 106.333L14 156.333C14 165.5 21.5 173 30.6667 173L97.3333 163.5L164 173C173.167 173 180.667 165.5 180.667 156.333L173 106.333L180.667 56.3333C180.667 47.1667 173.167 39.6667 164 39.6667ZM97.3333 148C74.3333 148 55.6667 129.333 55.6667 106.333C55.6667 83.3333 74.3333 64.6667 97.3333 64.6667C120.333 64.6667 139 83.3333 139 106.333C139 129.333 120.333 148 97.3333 148Z" fill="#F24E1E"/>
</g>
<g filter="url(#filter1_d_49_3)">
<path d="M278.557 123.951C276.676 125.501 275.624 128.268 275.403 132.252C275.292 136.126 275.956 140.11 277.395 144.205C278.944 148.189 281.269 151.731 284.368 154.83C287.467 157.929 291.34 159.479 295.989 159.479C298.977 159.479 301.523 158.759 303.625 157.32C305.839 155.882 307.61 154.111 308.938 152.008C310.377 149.794 311.428 147.359 312.092 144.703C312.756 142.047 313.088 139.446 313.088 136.9C313.088 133.248 312.369 130.204 310.93 127.77C309.602 125.335 307.776 123.232 305.452 121.461C303.238 119.579 300.637 118.03 297.649 116.812C294.771 115.484 291.838 114.156 288.85 112.828C286.083 111.721 282.763 110.338 278.889 108.678C275.015 106.907 271.308 104.638 267.766 101.871C264.224 98.9935 261.181 95.5072 258.635 91.4121C256.2 87.2064 254.983 82.0599 254.983 75.9727C254.983 71.9883 256.034 67.9486 258.137 63.8535C260.24 59.7585 263.228 56.0508 267.102 52.7305C270.976 49.2995 275.624 46.5326 281.047 44.4297C286.581 42.3268 292.779 41.2754 299.641 41.2754C306.392 41.2754 311.871 41.8841 316.077 43.1016C320.282 44.319 323.547 45.9238 325.872 47.916C328.196 49.7975 329.745 51.9004 330.52 54.2246C331.405 56.4382 331.848 58.541 331.848 60.5332C331.848 62.5254 331.239 64.5729 330.022 66.6758C328.805 68.668 327.366 70.5495 325.706 72.3203C324.045 73.9805 322.33 75.4746 320.559 76.8027C318.788 78.0202 317.349 78.8503 316.243 79.293C316.796 77.8542 317.349 75.862 317.903 73.3164C318.456 70.7708 318.29 68.2253 317.405 65.6797C316.63 63.1341 314.693 60.9206 311.594 59.0391C308.606 57.1576 303.736 56.2168 296.985 56.2168C293.111 56.2168 289.348 56.8255 285.696 58.043C282.043 59.2604 278.778 60.8652 275.901 62.8574C273.134 64.7389 270.92 66.8971 269.26 69.332C267.6 71.7669 266.77 74.2572 266.77 76.8027C266.77 79.2376 267.6 81.5065 269.26 83.6094C271.031 85.6016 273.355 87.5384 276.233 89.4199C279.221 91.1908 282.597 92.9616 286.36 94.7324C290.234 96.5033 294.273 98.2741 298.479 100.045C302.574 101.816 306.614 103.753 310.598 105.855C314.583 107.848 318.124 110.172 321.223 112.828C324.433 115.484 326.978 118.473 328.86 121.793C330.741 125.113 331.682 128.932 331.682 133.248C331.682 137.896 330.797 142.379 329.026 146.695C327.366 150.901 324.931 154.609 321.721 157.818C318.622 161.028 314.804 163.574 310.266 165.455C305.728 167.447 300.582 168.443 294.827 168.443C289.736 168.443 284.921 167.613 280.383 165.953C275.846 164.293 271.861 162.135 268.43 159.479C265.11 156.822 262.454 153.889 260.461 150.68C258.469 147.47 257.473 144.316 257.473 141.217C257.473 137.896 258.193 135.074 259.631 132.75C261.181 130.426 263.062 128.6 265.276 127.271C267.489 125.833 269.758 124.837 272.083 124.283C274.517 123.73 276.676 123.619 278.557 123.951ZM415.686 88.4238C420.999 88.4238 423.101 91.7995 421.995 98.5508C421.552 101.428 420.777 105.302 419.67 110.172C418.564 115.042 417.18 120.133 415.52 125.445C413.86 130.647 411.923 135.738 409.709 140.719C407.607 145.699 405.282 149.794 402.737 153.004C400.413 154.111 398.42 154.775 396.76 154.996C395.875 155.217 395.1 155.273 394.436 155.162C393.551 155.162 392.721 155.051 391.946 154.83C391.171 154.609 390.396 154.166 389.622 153.502C388.958 152.838 388.293 151.842 387.629 150.514C387.076 149.186 386.633 147.359 386.301 145.035C385.748 141.604 384.918 137.896 383.811 133.912C382.815 129.928 381.764 126.275 380.657 122.955C379.661 125.943 378.609 128.987 377.502 132.086C376.506 135.074 375.455 137.896 374.348 140.553C373.352 143.209 372.356 145.589 371.36 147.691C370.364 149.794 369.423 151.399 368.538 152.506C364.885 154.166 362.229 155.162 360.569 155.494C359.573 155.826 358.743 155.937 358.079 155.826C355.865 152.949 353.928 149.905 352.268 146.695C350.608 143.375 349.28 140.276 348.284 137.398C347.066 134.078 346.07 130.758 345.295 127.438C344.41 123.232 343.801 119.192 343.469 115.318C343.137 111.445 342.805 107.903 342.473 104.693C342.252 101.373 341.92 98.4954 341.477 96.0605C341.145 93.6257 340.481 91.6888 339.485 90.25C340.481 89.4753 341.643 88.7559 342.971 88.0918C344.299 87.3171 345.683 86.8743 347.122 86.7637C348.56 86.5423 349.999 86.653 351.438 87.0957C352.987 87.4277 354.482 88.2578 355.92 89.5859C356.142 92.4635 356.308 95.2858 356.418 98.0527C356.529 100.709 356.64 103.144 356.75 105.357C356.861 107.903 356.917 110.283 356.917 112.496C357.027 115.263 357.138 118.196 357.249 121.295C357.47 124.394 357.747 127.438 358.079 130.426C358.411 133.414 358.909 136.236 359.573 138.893C360.347 141.438 361.344 143.596 362.561 145.367C363.778 143.375 365.494 140.11 367.708 135.572C369.921 130.924 371.747 125.113 373.186 118.141C373.739 115.263 374.071 112.385 374.182 109.508C374.403 106.63 374.403 104.029 374.182 101.705C374.071 99.2702 373.85 97.1673 373.518 95.3965C373.297 93.515 373.02 92.1868 372.688 91.4121C373.573 90.8587 374.514 90.4714 375.51 90.25C376.506 89.918 377.447 89.6413 378.333 89.4199C379.329 89.1986 380.269 89.0879 381.155 89.0879C384.032 88.8665 385.969 89.4199 386.965 90.748C388.072 91.9655 388.349 94.2897 387.795 97.7207C387.685 98.6061 387.408 99.9896 386.965 101.871C386.523 103.642 385.969 105.8 385.305 108.346C385.969 110.559 386.744 113.382 387.629 116.812C388.515 120.133 389.4 123.398 390.286 126.607C390.95 129.706 391.614 132.861 392.278 136.07C392.942 139.28 393.495 142.102 393.938 144.537C394.491 144.426 395.045 144.205 395.598 143.873C396.152 143.541 396.65 142.932 397.092 142.047C397.535 141.272 398.144 139.999 398.918 138.229C399.693 136.458 400.523 134.299 401.409 131.754C402.294 129.208 403.124 126.386 403.899 123.287C404.784 120.188 405.559 116.868 406.223 113.326C407.441 106.243 407.883 101.096 407.551 97.8867C407.33 94.6771 406.721 92.5189 405.725 91.4121C406.832 90.6374 407.939 90.084 409.045 89.752C410.263 89.3092 411.37 88.9772 412.366 88.7559C413.583 88.5345 414.69 88.4238 415.686 88.4238ZM431.125 95.2305C431.125 94.5664 432.011 93.847 433.782 93.0723C435.553 92.2975 437.489 91.6888 439.592 91.2461C441.806 90.6927 443.798 90.416 445.569 90.416C447.45 90.3053 448.391 90.6927 448.391 91.5781C448.391 93.2383 448.28 95.6178 448.059 98.7168C447.838 101.705 447.561 104.915 447.229 108.346C446.897 111.666 446.565 115.042 446.233 118.473C445.901 121.793 445.68 124.615 445.569 126.939C445.347 129.374 445.126 132.031 444.905 134.908C444.683 137.343 444.517 140.055 444.407 143.043C444.296 146.031 444.296 149.075 444.407 152.174C444.407 152.727 443.853 153.281 442.747 153.834C441.64 154.387 440.422 154.775 439.094 154.996C437.766 155.328 436.493 155.494 435.276 155.494C434.058 155.494 433.394 155.273 433.284 154.83C433.062 154.387 432.841 153.613 432.62 152.506C432.398 151.399 432.177 149.85 431.956 147.857C431.734 145.755 431.568 143.098 431.458 139.889C431.347 136.568 431.402 132.584 431.624 127.936C432.066 118.749 432.122 111.666 431.79 106.686C431.458 101.594 431.236 97.776 431.125 95.2305ZM442.747 62.1934C444.96 62.1934 447.063 62.8574 449.055 64.1855C451.047 65.5137 452.043 67.2845 452.043 69.498C452.043 71.1582 451.601 72.763 450.715 74.3125C449.941 75.862 448.944 77.2454 447.727 78.4629C446.51 79.6803 445.126 80.6764 443.577 81.4512C442.027 82.1152 440.588 82.4473 439.26 82.4473C437.489 82.4473 436.051 82.1706 434.944 81.6172C433.837 80.9531 432.952 80.2337 432.288 79.459C431.734 78.5736 431.347 77.6328 431.125 76.6367C430.904 75.6406 430.793 74.6999 430.793 73.8145C430.793 72.7077 430.959 71.4902 431.292 70.1621C431.624 68.7233 432.232 67.4505 433.118 66.3438C434.003 65.1263 435.221 64.1302 436.77 63.3555C438.319 62.5807 440.312 62.1934 442.747 62.1934ZM438.596 77.6328C439.26 77.6328 439.98 77.4115 440.754 76.9688C441.64 76.4154 442.415 75.8066 443.079 75.1426C443.853 74.4785 444.462 73.7591 444.905 72.9844C445.458 72.2096 445.735 71.5456 445.735 70.9922C445.735 70.1068 445.292 69.6641 444.407 69.6641C443.853 69.6641 443.134 69.8854 442.249 70.3281C441.474 70.7708 440.699 71.3242 439.924 71.9883C439.15 72.5417 438.486 73.2057 437.932 73.9805C437.489 74.6445 437.268 75.3086 437.268 75.9727C437.268 77.0794 437.711 77.6328 438.596 77.6328ZM492.219 88.2578C495.318 88.2578 498.196 89.1432 500.852 90.9141C503.508 92.6849 505.777 95.0091 507.659 97.8867C509.54 100.764 511.034 104.085 512.141 107.848C513.248 111.5 513.801 115.318 513.801 119.303C513.801 123.287 513.359 127.493 512.473 131.92C511.588 136.347 510.204 140.442 508.323 144.205C506.441 147.968 504.006 151.122 501.018 153.668C498.03 156.103 494.377 157.32 490.061 157.32C486.63 157.32 483.365 156.103 480.266 153.668C477.278 151.122 474.954 147.968 473.293 144.205C473.072 148.079 472.574 152.008 471.799 155.992C471.025 160.087 470.637 164.957 470.637 170.602C470.637 172.262 470.693 174.143 470.803 176.246C470.914 178.349 471.08 180.452 471.301 182.555C471.523 184.658 471.855 186.594 472.297 188.365C472.74 190.136 473.238 191.52 473.792 192.516C471.91 193.622 470.194 194.452 468.645 195.006C467.206 195.559 465.933 195.947 464.827 196.168C463.609 196.5 462.447 196.666 461.34 196.666C459.902 196.666 458.961 196.057 458.518 194.84C458.075 193.622 457.854 191.464 457.854 188.365C457.854 186.373 457.909 183.495 458.02 179.732C458.241 176.08 458.463 171.874 458.684 167.115C459.016 162.356 459.293 157.376 459.514 152.174C459.846 146.861 460.123 141.66 460.344 136.568C460.676 131.477 460.898 126.773 461.008 122.457C461.23 118.03 461.34 114.322 461.34 111.334C461.34 107.682 461.285 104.859 461.174 102.867C461.064 100.764 460.898 99.2148 460.676 98.2188C460.566 97.112 460.4 96.3372 460.178 95.8945C459.957 95.4518 459.68 94.9538 459.348 94.4004C460.344 93.6257 461.506 92.9616 462.834 92.4082C464.273 91.7441 465.657 91.3014 466.985 91.0801C468.424 90.748 469.696 90.6374 470.803 90.748C472.021 90.8587 472.961 91.1354 473.625 91.5781C474.179 92.1315 474.566 92.9616 474.788 94.0684C475.12 95.1751 475.396 96.8353 475.618 99.0488C477.721 96.1712 480.1 93.681 482.756 91.5781C485.523 89.3646 488.678 88.2578 492.219 88.2578ZM485.745 147.525C487.737 147.525 489.618 146.585 491.389 144.703C493.271 142.822 494.875 140.442 496.204 137.564C497.642 134.576 498.749 131.311 499.524 127.77C500.409 124.117 500.852 120.52 500.852 116.979C500.852 113.105 500.465 109.951 499.69 107.516C499.026 104.97 498.14 102.978 497.034 101.539C496.038 99.9896 494.931 98.9382 493.713 98.3848C492.607 97.7207 491.611 97.3887 490.725 97.3887C488.622 97.3887 486.63 98.2741 484.749 100.045C482.867 101.705 481.207 103.919 479.768 106.686C478.329 109.342 477.167 112.33 476.282 115.65C475.507 118.971 475.12 122.291 475.12 125.611C475.12 128.71 475.396 131.588 475.95 134.244C476.614 136.9 477.444 139.225 478.44 141.217C479.436 143.209 480.543 144.758 481.76 145.865C483.088 146.972 484.417 147.525 485.745 147.525ZM545.676 155.826C537.929 155.826 531.952 153.225 527.747 148.023C523.541 142.822 521.438 136.015 521.438 127.604C521.438 121.738 522.268 116.259 523.928 111.168C525.699 105.966 528.023 101.484 530.901 97.7207C533.778 93.9577 537.099 91.0247 540.862 88.9219C544.736 86.7083 548.775 85.6016 552.981 85.6016C557.076 85.6016 560.562 87.0957 563.44 90.084C566.318 92.9616 567.756 97.112 567.756 102.535C567.756 106.077 566.982 109.618 565.432 113.16C563.883 116.591 561.835 119.69 559.29 122.457C556.855 125.113 554.143 127.271 551.155 128.932C548.167 130.592 545.289 131.422 542.522 131.422C540.751 131.422 539.257 131.201 538.04 130.758C536.822 130.315 535.715 129.651 534.719 128.766C535.051 135.074 536.435 139.501 538.87 142.047C541.305 144.482 544.459 145.699 548.333 145.699C550.989 145.699 553.313 145.146 555.305 144.039C557.408 142.932 559.179 141.66 560.618 140.221C562.056 138.782 563.219 137.343 564.104 135.904C564.989 134.355 565.598 133.193 565.93 132.418C566.262 131.754 566.816 131.422 567.59 131.422C568.476 131.422 568.918 132.086 568.918 133.414C568.918 134.632 568.476 136.513 567.59 139.059C566.816 141.493 565.487 143.984 563.606 146.529C561.724 148.964 559.29 151.122 556.301 153.004C553.424 154.885 549.882 155.826 545.676 155.826ZM553.313 92.7402C552.649 92.7402 551.376 93.4596 549.495 94.8984C547.724 96.2266 545.787 98.2188 543.684 100.875C541.692 103.531 539.81 106.741 538.04 110.504C536.379 114.156 535.328 118.307 534.885 122.955C541.526 121.406 546.783 118.971 550.657 115.65C554.53 112.33 556.467 107.46 556.467 101.041C556.467 97.8314 556.08 95.6732 555.305 94.5664C554.53 93.349 553.866 92.7402 553.313 92.7402Z" fill="white"/>
</g>
<g filter="url(#filter2_d_49_3)">
<path d="M638.336 167.613C633.135 167.613 628.265 166.23 623.727 163.463C619.3 160.696 615.371 156.712 611.94 151.51C608.509 146.308 605.797 139.999 603.805 132.584C601.924 125.058 600.983 116.591 600.983 107.184C600.983 97.776 602.256 89.0326 604.801 80.9531C607.347 72.8737 610.722 65.8457 614.928 59.8691C619.134 53.8926 624.004 49.2441 629.538 45.9238C635.182 42.4928 640.993 40.7773 646.969 40.7773C653.056 40.7773 658.037 41.6074 661.911 43.2676C665.784 44.9277 668.828 47.1966 671.042 50.0742C673.255 52.8411 674.749 56.1061 675.524 59.8691C676.299 63.6322 676.575 67.5612 676.354 71.6562C676.243 74.3125 675.69 77.0241 674.694 79.791C673.698 82.4473 672.48 84.8268 671.042 86.9297C669.603 89.0326 668.053 90.6374 666.393 91.7441C664.733 92.8509 663.128 93.0723 661.579 92.4082C660.361 92.0762 659.033 91.6888 657.594 91.2461C654.938 90.3607 651.784 89.0879 648.131 87.4277C650.345 85.8783 652.392 84.1074 654.274 82.1152C655.823 80.3444 657.207 78.1862 658.424 75.6406C659.752 73.0951 660.417 70.1621 660.417 66.8418C660.417 63.9642 660.029 61.5293 659.254 59.5371C658.59 57.4342 657.65 55.7741 656.432 54.5566C655.325 53.2285 654.053 52.2878 652.614 51.7344C651.175 51.0703 649.736 50.7383 648.297 50.7383C644.645 50.7383 640.993 52.1771 637.34 55.0547C633.799 57.9323 630.589 61.972 627.711 67.1738C624.944 72.265 622.676 78.3522 620.905 85.4355C619.134 92.5189 618.249 100.211 618.249 108.512C618.249 115.042 618.857 121.129 620.075 126.773C621.403 132.307 623.118 137.122 625.221 141.217C627.324 145.201 629.759 148.355 632.526 150.68C635.403 152.893 638.447 154 641.657 154C644.092 154 646.416 153.336 648.629 152.008C650.843 150.68 652.724 148.854 654.274 146.529C655.823 144.205 657.041 141.383 657.926 138.062C658.922 134.742 659.42 131.09 659.42 127.105C659.42 123.453 659.31 120.631 659.088 118.639C658.978 116.536 658.812 114.986 658.59 113.99C658.48 112.883 658.314 112.219 658.092 111.998C657.982 111.777 657.926 111.666 657.926 111.666C658.037 111.666 658.922 111.721 660.583 111.832C662.243 111.943 664.069 112.219 666.061 112.662C668.164 112.994 670.101 113.603 671.872 114.488C673.642 115.263 674.805 116.37 675.358 117.809C675.801 119.247 676.077 121.959 676.188 125.943C676.299 129.817 676.243 134.133 676.022 138.893C675.911 143.541 675.745 148.189 675.524 152.838C675.413 157.486 675.358 161.305 675.358 164.293C675.358 165.068 674.583 165.953 673.034 166.949C671.595 167.945 669.935 168.775 668.053 169.439C666.282 170.214 664.622 170.657 663.073 170.768C661.523 170.878 660.693 170.491 660.583 169.605V159.146V153.834C658.812 157.376 656.155 160.53 652.614 163.297C649.072 166.174 644.313 167.613 638.336 167.613ZM735.124 125.445C734.902 129.762 734.127 133.746 732.799 137.398C731.582 141.051 729.866 144.26 727.653 147.027C725.439 149.684 722.783 151.786 719.684 153.336C716.696 154.885 713.375 155.715 709.723 155.826C706.514 155.937 703.47 155.162 700.592 153.502C697.825 151.842 695.39 149.518 693.288 146.529C691.185 143.541 689.58 139.999 688.473 135.904C687.477 131.699 687.2 127.161 687.643 122.291C687.975 116.646 689.027 111.832 690.797 107.848C692.568 103.753 694.45 100.377 696.442 97.7207C698.434 95.0645 700.26 93.1276 701.92 91.9102C703.691 90.582 704.798 89.8073 705.241 89.5859C706.015 89.2539 706.735 89.1986 707.399 89.4199C708.063 89.5306 708.782 89.6966 709.557 89.918C709.778 90.0286 710 90.3053 710.221 90.748C710.664 91.5228 710.941 92.9616 711.051 95.0645C711.605 93.847 712.324 92.8509 713.209 92.0762C714.095 91.3014 714.98 90.748 715.866 90.416C716.972 89.9733 718.079 89.6966 719.186 89.5859C719.961 89.4753 721.289 90.084 723.17 91.4121C725.163 92.7402 727.044 94.8431 728.815 97.7207C730.696 100.598 732.301 104.361 733.629 109.01C734.958 113.548 735.456 119.026 735.124 125.445ZM723.834 123.453C723.945 120.797 723.834 118.141 723.502 115.484C723.281 112.717 722.838 110.227 722.174 108.014C721.621 105.689 720.902 103.863 720.016 102.535C719.131 101.096 718.245 100.377 717.36 100.377C716.364 100.598 715.257 101.096 714.04 101.871C713.043 102.535 711.937 103.587 710.719 105.025C709.502 106.464 708.34 108.512 707.233 111.168C707.122 110.836 707.012 110.227 706.901 109.342C706.79 108.567 706.68 107.571 706.569 106.354C706.569 105.025 706.68 103.255 706.901 101.041C705.351 102.923 704.134 105.136 703.249 107.682C702.474 110.227 701.865 112.662 701.422 114.986C700.98 117.753 700.648 120.52 700.426 123.287C700.316 126.275 700.426 129.208 700.758 132.086C701.201 134.964 701.865 137.509 702.75 139.723C703.747 141.936 704.909 143.707 706.237 145.035C707.565 146.363 709.17 146.972 711.051 146.861C712.933 146.751 714.593 145.976 716.032 144.537C717.471 143.098 718.743 141.272 719.85 139.059C720.957 136.845 721.842 134.355 722.506 131.588C723.17 128.821 723.613 126.109 723.834 123.453Z" fill="#F24E1E"/>
</g>
<defs>
<filter id="filter0_d_49_3" x="0" y="17" width="194.667" height="178" filterUnits="userSpaceOnUse" color-interpolation-filters="sRGB">
<feFlood flood-opacity="0" result="BackgroundImageFix"/>
<feColorMatrix in="SourceAlpha" type="matrix" values="0 0 0 0 0 0 0 0 0 0 0 0 0 0 0 0 0 0 127 0" result="hardAlpha"/>
<feOffset dy="8"/>
<feGaussianBlur stdDeviation="7"/>
<feComposite in2="hardAlpha" operator="out"/>
<feColorMatrix type="matrix" values="0 0 0 0 0.94902 0 0 0 0 0.305882 0 0 0 0 0.117647 0 0 0 0.25 0"/>
<feBlend mode="normal" in2="BackgroundImageFix" result="effect1_dropShadow_49_3"/>
<feBlend mode="normal" in="SourceGraphic" in2="effect1_dropShadow_49_3" result="shape"/>
</filter>
<filter id="filter1_d_49_3" x="240.983" y="35.2754" width="341.936" height="183.391" filterUnits="userSpaceOnUse" color-interpolation-filters="sRGB">
<feFlood flood-opacity="0" result="BackgroundImageFix"/>
<feColorMatrix in="SourceAlpha" type="matrix" values="0 0 0 0 0 0 0 0 0 0 0 0 0 0 0 0 0 0 127 0" result="hardAlpha"/>
<feOffset dy="8"/>
<feGaussianBlur stdDeviation="7"/>
<feComposite in2="hardAlpha" operator="out"/>
<feColorMatrix type="matrix" values="0 0 0 0 0.94902 0 0 0 0 0.305882 0 0 0 0 0.117647 0 0 0 0.25 0"/>
<feBlend mode="normal" in2="BackgroundImageFix" result="effect1_dropShadow_49_3"/>
<feBlend mode="normal" in="SourceGraphic" in2="effect1_dropShadow_49_3" result="shape"/>
</filter>
<filter id="filter2_d_49_3" x="586.983" y="34.7773" width="162.639" height="158.156" filterUnits="userSpaceOnUse" color-interpolation-filters="sRGB">
<feFlood flood-opacity="0" result="BackgroundImageFix"/>
<feColorMatrix in="SourceAlpha" type="matrix" values="0 0 0 0 0 0 0 0 0 0 0 0 0 0 0 0 0 0 127 0" result="hardAlpha"/>
<feOffset dy="8"/>
<feGaussianBlur stdDeviation="7"/>
<feComposite in2="hardAlpha" operator="out"/>
<feColorMatrix type="matrix" values="0 0 0 0 0.94902 0 0 0 0 0.305882 0 0 0 0 0.117647 0 0 0 0.25 0"/>
<feBlend mode="normal" in2="BackgroundImageFix" result="effect1_dropShadow_49_3"/>
<feBlend mode="normal" in="SourceGraphic" in2="effect1_dropShadow_49_3" result="shape"/>
</filter>
</defs>
</svg>
