<svg width="509" height="328" viewBox="0 0 509 328" fill="none" xmlns="http://www.w3.org/2000/svg">
<g filter="url(#filter0_d_47_8)">
<path d="M249.333 103.83C263.141 103.83 274.333 93.7224 274.333 81.2539C274.333 68.7854 263.141 58.6777 249.333 58.6777C235.526 58.6777 224.333 68.7854 224.333 81.2539C224.333 93.7224 235.526 103.83 249.333 103.83Z" fill="#F24E1E"/>
<path d="M316 21.0508H289.583L279.25 10.8915C277.697 9.35176 275.805 8.12146 273.696 7.27921C271.587 6.43696 269.306 6.00128 267 6H231.667C227 6 222.5 7.80609 219.333 10.8915L209.083 21.0508H182.667C173.5 21.0508 166 27.8236 166 36.1016L173.5 81.2539L166 126.406C166 134.684 173.5 141.457 182.667 141.457L249.333 132.878L316 141.457C325.167 141.457 332.667 134.684 332.667 126.406L325 81.2539L332.667 36.1016C332.667 27.8236 325.167 21.0508 316 21.0508ZM249.333 118.881C226.333 118.881 207.667 102.024 207.667 81.2539C207.667 60.4838 226.333 43.627 249.333 43.627C272.333 43.627 291 60.4838 291 81.2539C291 102.024 272.333 118.881 249.333 118.881Z" fill="#F24E1E"/>
</g>
<g filter="url(#filter1_d_47_8)">
<path d="M37.8906 232.408C36.0091 233.958 34.9577 236.725 34.7363 240.709C34.6257 244.583 35.2897 248.567 36.7285 252.662C38.278 256.646 40.6022 260.188 43.7012 263.287C46.8001 266.386 50.6738 267.936 55.3223 267.936C58.3105 267.936 60.8561 267.216 62.959 265.777C65.1725 264.339 66.9434 262.568 68.2715 260.465C69.7103 258.251 70.7617 255.816 71.4258 253.16C72.0898 250.504 72.4219 247.903 72.4219 245.357C72.4219 241.705 71.7025 238.661 70.2637 236.227C68.9355 233.792 67.1094 231.689 64.7852 229.918C62.5716 228.036 59.9707 226.487 56.9824 225.27C54.1048 223.941 51.1719 222.613 48.1836 221.285C45.4167 220.178 42.0964 218.795 38.2227 217.135C34.349 215.364 30.6413 213.095 27.0996 210.328C23.5579 207.451 20.5143 203.964 17.9688 199.869C15.5339 195.663 14.3164 190.517 14.3164 184.43C14.3164 180.445 15.3678 176.406 17.4707 172.311C19.5736 168.215 22.5618 164.508 26.4355 161.188C30.3092 157.757 34.9577 154.99 40.3809 152.887C45.9147 150.784 52.1126 149.732 58.9746 149.732C65.7259 149.732 71.2044 150.341 75.4102 151.559C79.6159 152.776 82.8809 154.381 85.2051 156.373C87.5293 158.255 89.0788 160.357 89.8535 162.682C90.7389 164.895 91.1816 166.998 91.1816 168.99C91.1816 170.982 90.5729 173.03 89.3555 175.133C88.138 177.125 86.6992 179.007 85.0391 180.777C83.3789 182.438 81.6634 183.932 79.8926 185.26C78.1217 186.477 76.6829 187.307 75.5762 187.75C76.1296 186.311 76.6829 184.319 77.2363 181.773C77.7897 179.228 77.6237 176.682 76.7383 174.137C75.9635 171.591 74.0267 169.378 70.9277 167.496C67.9395 165.615 63.0697 164.674 56.3184 164.674C52.4447 164.674 48.6816 165.283 45.0293 166.5C41.377 167.717 38.112 169.322 35.2344 171.314C32.4674 173.196 30.2539 175.354 28.5938 177.789C26.9336 180.224 26.1035 182.714 26.1035 185.26C26.1035 187.695 26.9336 189.964 28.5938 192.066C30.3646 194.059 32.6888 195.995 35.5664 197.877C38.5547 199.648 41.9303 201.419 45.6934 203.189C49.5671 204.96 53.6068 206.731 57.8125 208.502C61.9076 210.273 65.9473 212.21 69.9316 214.312C73.916 216.305 77.4577 218.629 80.5566 221.285C83.7663 223.941 86.3118 226.93 88.1934 230.25C90.0749 233.57 91.0156 237.389 91.0156 241.705C91.0156 246.354 90.1302 250.836 88.3594 255.152C86.6992 259.358 84.2643 263.066 81.0547 266.275C77.9557 269.485 74.1374 272.031 69.5996 273.912C65.0618 275.904 59.9154 276.9 54.1602 276.9C49.069 276.9 44.2546 276.07 39.7168 274.41C35.179 272.75 31.1947 270.592 27.7637 267.936C24.4434 265.279 21.7871 262.346 19.7949 259.137C17.8027 255.927 16.8066 252.773 16.8066 249.674C16.8066 246.354 17.526 243.531 18.9648 241.207C20.5143 238.883 22.3958 237.057 24.6094 235.729C26.8229 234.29 29.0918 233.294 31.416 232.74C33.8509 232.187 36.0091 232.076 37.8906 232.408ZM175.02 196.881C180.332 196.881 182.435 200.257 181.328 207.008C180.885 209.885 180.111 213.759 179.004 218.629C177.897 223.499 176.514 228.59 174.854 233.902C173.193 239.104 171.257 244.195 169.043 249.176C166.94 254.156 164.616 258.251 162.07 261.461C159.746 262.568 157.754 263.232 156.094 263.453C155.208 263.674 154.434 263.73 153.77 263.619C152.884 263.619 152.054 263.508 151.279 263.287C150.505 263.066 149.73 262.623 148.955 261.959C148.291 261.295 147.627 260.299 146.963 258.971C146.41 257.643 145.967 255.816 145.635 253.492C145.081 250.061 144.251 246.354 143.145 242.369C142.148 238.385 141.097 234.732 139.99 231.412C138.994 234.4 137.943 237.444 136.836 240.543C135.84 243.531 134.788 246.354 133.682 249.01C132.686 251.666 131.689 254.046 130.693 256.148C129.697 258.251 128.757 259.856 127.871 260.963C124.219 262.623 121.562 263.619 119.902 263.951C118.906 264.283 118.076 264.394 117.412 264.283C115.199 261.406 113.262 258.362 111.602 255.152C109.941 251.832 108.613 248.733 107.617 245.855C106.4 242.535 105.404 239.215 104.629 235.895C103.743 231.689 103.135 227.649 102.803 223.775C102.471 219.902 102.139 216.36 101.807 213.15C101.585 209.83 101.253 206.952 100.811 204.518C100.479 202.083 99.8145 200.146 98.8184 198.707C99.8145 197.932 100.977 197.213 102.305 196.549C103.633 195.774 105.016 195.331 106.455 195.221C107.894 194.999 109.333 195.11 110.771 195.553C112.321 195.885 113.815 196.715 115.254 198.043C115.475 200.921 115.641 203.743 115.752 206.51C115.863 209.166 115.973 211.601 116.084 213.814C116.195 216.36 116.25 218.74 116.25 220.953C116.361 223.72 116.471 226.653 116.582 229.752C116.803 232.851 117.08 235.895 117.412 238.883C117.744 241.871 118.242 244.693 118.906 247.35C119.681 249.895 120.677 252.053 121.895 253.824C123.112 251.832 124.827 248.567 127.041 244.029C129.255 239.381 131.081 233.57 132.52 226.598C133.073 223.72 133.405 220.842 133.516 217.965C133.737 215.087 133.737 212.486 133.516 210.162C133.405 207.727 133.184 205.624 132.852 203.854C132.63 201.972 132.354 200.644 132.021 199.869C132.907 199.316 133.848 198.928 134.844 198.707C135.84 198.375 136.781 198.098 137.666 197.877C138.662 197.656 139.603 197.545 140.488 197.545C143.366 197.324 145.303 197.877 146.299 199.205C147.406 200.423 147.682 202.747 147.129 206.178C147.018 207.063 146.742 208.447 146.299 210.328C145.856 212.099 145.303 214.257 144.639 216.803C145.303 219.016 146.077 221.839 146.963 225.27C147.848 228.59 148.734 231.855 149.619 235.064C150.283 238.163 150.947 241.318 151.611 244.527C152.275 247.737 152.829 250.559 153.271 252.994C153.825 252.883 154.378 252.662 154.932 252.33C155.485 251.998 155.983 251.389 156.426 250.504C156.868 249.729 157.477 248.456 158.252 246.686C159.027 244.915 159.857 242.757 160.742 240.211C161.628 237.665 162.458 234.843 163.232 231.744C164.118 228.645 164.893 225.325 165.557 221.783C166.774 214.7 167.217 209.553 166.885 206.344C166.663 203.134 166.055 200.976 165.059 199.869C166.165 199.094 167.272 198.541 168.379 198.209C169.596 197.766 170.703 197.434 171.699 197.213C172.917 196.992 174.023 196.881 175.02 196.881ZM190.459 203.688C190.459 203.023 191.344 202.304 193.115 201.529C194.886 200.755 196.823 200.146 198.926 199.703C201.139 199.15 203.132 198.873 204.902 198.873C206.784 198.762 207.725 199.15 207.725 200.035C207.725 201.695 207.614 204.075 207.393 207.174C207.171 210.162 206.895 213.372 206.562 216.803C206.23 220.123 205.898 223.499 205.566 226.93C205.234 230.25 205.013 233.072 204.902 235.396C204.681 237.831 204.46 240.488 204.238 243.365C204.017 245.8 203.851 248.512 203.74 251.5C203.63 254.488 203.63 257.532 203.74 260.631C203.74 261.184 203.187 261.738 202.08 262.291C200.973 262.844 199.756 263.232 198.428 263.453C197.1 263.785 195.827 263.951 194.609 263.951C193.392 263.951 192.728 263.73 192.617 263.287C192.396 262.844 192.174 262.07 191.953 260.963C191.732 259.856 191.51 258.307 191.289 256.314C191.068 254.212 190.902 251.555 190.791 248.346C190.68 245.025 190.736 241.041 190.957 236.393C191.4 227.206 191.455 220.123 191.123 215.143C190.791 210.051 190.57 206.233 190.459 203.688ZM202.08 170.65C204.294 170.65 206.396 171.314 208.389 172.643C210.381 173.971 211.377 175.742 211.377 177.955C211.377 179.615 210.934 181.22 210.049 182.77C209.274 184.319 208.278 185.702 207.061 186.92C205.843 188.137 204.46 189.133 202.91 189.908C201.361 190.572 199.922 190.904 198.594 190.904C196.823 190.904 195.384 190.628 194.277 190.074C193.171 189.41 192.285 188.691 191.621 187.916C191.068 187.031 190.68 186.09 190.459 185.094C190.238 184.098 190.127 183.157 190.127 182.271C190.127 181.165 190.293 179.947 190.625 178.619C190.957 177.18 191.566 175.908 192.451 174.801C193.337 173.583 194.554 172.587 196.104 171.812C197.653 171.038 199.645 170.65 202.08 170.65ZM197.93 186.09C198.594 186.09 199.313 185.868 200.088 185.426C200.973 184.872 201.748 184.264 202.412 183.6C203.187 182.936 203.796 182.216 204.238 181.441C204.792 180.667 205.068 180.003 205.068 179.449C205.068 178.564 204.626 178.121 203.74 178.121C203.187 178.121 202.467 178.342 201.582 178.785C200.807 179.228 200.033 179.781 199.258 180.445C198.483 180.999 197.819 181.663 197.266 182.438C196.823 183.102 196.602 183.766 196.602 184.43C196.602 185.536 197.044 186.09 197.93 186.09ZM251.553 196.715C254.652 196.715 257.529 197.6 260.186 199.371C262.842 201.142 265.111 203.466 266.992 206.344C268.874 209.221 270.368 212.542 271.475 216.305C272.581 219.957 273.135 223.775 273.135 227.76C273.135 231.744 272.692 235.95 271.807 240.377C270.921 244.804 269.538 248.899 267.656 252.662C265.775 256.425 263.34 259.579 260.352 262.125C257.363 264.56 253.711 265.777 249.395 265.777C245.964 265.777 242.699 264.56 239.6 262.125C236.611 259.579 234.287 256.425 232.627 252.662C232.406 256.536 231.908 260.465 231.133 264.449C230.358 268.544 229.971 273.414 229.971 279.059C229.971 280.719 230.026 282.6 230.137 284.703C230.247 286.806 230.413 288.909 230.635 291.012C230.856 293.115 231.188 295.051 231.631 296.822C232.074 298.593 232.572 299.977 233.125 300.973C231.243 302.079 229.528 302.91 227.979 303.463C226.54 304.016 225.267 304.404 224.16 304.625C222.943 304.957 221.781 305.123 220.674 305.123C219.235 305.123 218.294 304.514 217.852 303.297C217.409 302.079 217.188 299.921 217.188 296.822C217.188 294.83 217.243 291.952 217.354 288.189C217.575 284.537 217.796 280.331 218.018 275.572C218.35 270.813 218.626 265.833 218.848 260.631C219.18 255.318 219.456 250.117 219.678 245.025C220.01 239.934 220.231 235.23 220.342 230.914C220.563 226.487 220.674 222.779 220.674 219.791C220.674 216.139 220.618 213.316 220.508 211.324C220.397 209.221 220.231 207.672 220.01 206.676C219.899 205.569 219.733 204.794 219.512 204.352C219.29 203.909 219.014 203.411 218.682 202.857C219.678 202.083 220.84 201.419 222.168 200.865C223.607 200.201 224.99 199.758 226.318 199.537C227.757 199.205 229.03 199.094 230.137 199.205C231.354 199.316 232.295 199.592 232.959 200.035C233.512 200.589 233.9 201.419 234.121 202.525C234.453 203.632 234.73 205.292 234.951 207.506C237.054 204.628 239.434 202.138 242.09 200.035C244.857 197.822 248.011 196.715 251.553 196.715ZM245.078 255.982C247.07 255.982 248.952 255.042 250.723 253.16C252.604 251.279 254.209 248.899 255.537 246.021C256.976 243.033 258.083 239.768 258.857 236.227C259.743 232.574 260.186 228.977 260.186 225.436C260.186 221.562 259.798 218.408 259.023 215.973C258.359 213.427 257.474 211.435 256.367 209.996C255.371 208.447 254.264 207.395 253.047 206.842C251.94 206.178 250.944 205.846 250.059 205.846C247.956 205.846 245.964 206.731 244.082 208.502C242.201 210.162 240.54 212.376 239.102 215.143C237.663 217.799 236.501 220.787 235.615 224.107C234.84 227.428 234.453 230.748 234.453 234.068C234.453 237.167 234.73 240.045 235.283 242.701C235.947 245.357 236.777 247.682 237.773 249.674C238.77 251.666 239.876 253.215 241.094 254.322C242.422 255.429 243.75 255.982 245.078 255.982ZM305.01 264.283C297.262 264.283 291.286 261.682 287.08 256.48C282.874 251.279 280.771 244.472 280.771 236.061C280.771 230.195 281.602 224.716 283.262 219.625C285.033 214.423 287.357 209.941 290.234 206.178C293.112 202.415 296.432 199.482 300.195 197.379C304.069 195.165 308.109 194.059 312.314 194.059C316.41 194.059 319.896 195.553 322.773 198.541C325.651 201.419 327.09 205.569 327.09 210.992C327.09 214.534 326.315 218.076 324.766 221.617C323.216 225.048 321.169 228.147 318.623 230.914C316.188 233.57 313.477 235.729 310.488 237.389C307.5 239.049 304.622 239.879 301.855 239.879C300.085 239.879 298.59 239.658 297.373 239.215C296.156 238.772 295.049 238.108 294.053 237.223C294.385 243.531 295.768 247.958 298.203 250.504C300.638 252.939 303.792 254.156 307.666 254.156C310.322 254.156 312.646 253.603 314.639 252.496C316.742 251.389 318.512 250.117 319.951 248.678C321.39 247.239 322.552 245.8 323.438 244.361C324.323 242.812 324.932 241.65 325.264 240.875C325.596 240.211 326.149 239.879 326.924 239.879C327.809 239.879 328.252 240.543 328.252 241.871C328.252 243.089 327.809 244.97 326.924 247.516C326.149 249.951 324.821 252.441 322.939 254.986C321.058 257.421 318.623 259.579 315.635 261.461C312.757 263.342 309.215 264.283 305.01 264.283ZM312.646 201.197C311.982 201.197 310.71 201.917 308.828 203.355C307.057 204.684 305.12 206.676 303.018 209.332C301.025 211.988 299.144 215.198 297.373 218.961C295.713 222.613 294.661 226.764 294.219 231.412C300.859 229.863 306.117 227.428 309.99 224.107C313.864 220.787 315.801 215.917 315.801 209.498C315.801 206.288 315.413 204.13 314.639 203.023C313.864 201.806 313.2 201.197 312.646 201.197Z" fill="black"/>
</g>
<g filter="url(#filter2_d_47_8)">
<path d="M397.67 276.07C392.468 276.07 387.598 274.687 383.061 271.92C378.633 269.153 374.704 265.169 371.273 259.967C367.842 254.765 365.131 248.456 363.139 241.041C361.257 233.515 360.316 225.048 360.316 215.641C360.316 206.233 361.589 197.49 364.135 189.41C366.68 181.331 370.056 174.303 374.262 168.326C378.467 162.35 383.337 157.701 388.871 154.381C394.516 150.95 400.326 149.234 406.303 149.234C412.39 149.234 417.37 150.064 421.244 151.725C425.118 153.385 428.161 155.654 430.375 158.531C432.589 161.298 434.083 164.563 434.857 168.326C435.632 172.089 435.909 176.018 435.688 180.113C435.577 182.77 435.023 185.481 434.027 188.248C433.031 190.904 431.814 193.284 430.375 195.387C428.936 197.49 427.387 199.094 425.727 200.201C424.066 201.308 422.462 201.529 420.912 200.865C419.695 200.533 418.367 200.146 416.928 199.703C414.271 198.818 411.117 197.545 407.465 195.885C409.678 194.335 411.726 192.564 413.607 190.572C415.157 188.801 416.54 186.643 417.758 184.098C419.086 181.552 419.75 178.619 419.75 175.299C419.75 172.421 419.363 169.986 418.588 167.994C417.924 165.891 416.983 164.231 415.766 163.014C414.659 161.686 413.386 160.745 411.947 160.191C410.508 159.527 409.07 159.195 407.631 159.195C403.979 159.195 400.326 160.634 396.674 163.512C393.132 166.389 389.923 170.429 387.045 175.631C384.278 180.722 382.009 186.809 380.238 193.893C378.467 200.976 377.582 208.668 377.582 216.969C377.582 223.499 378.191 229.586 379.408 235.23C380.736 240.764 382.452 245.579 384.555 249.674C386.658 253.658 389.092 256.812 391.859 259.137C394.737 261.35 397.781 262.457 400.99 262.457C403.425 262.457 405.749 261.793 407.963 260.465C410.176 259.137 412.058 257.311 413.607 254.986C415.157 252.662 416.374 249.84 417.26 246.52C418.256 243.199 418.754 239.547 418.754 235.562C418.754 231.91 418.643 229.088 418.422 227.096C418.311 224.993 418.145 223.443 417.924 222.447C417.813 221.34 417.647 220.676 417.426 220.455C417.315 220.234 417.26 220.123 417.26 220.123C417.37 220.123 418.256 220.178 419.916 220.289C421.576 220.4 423.402 220.676 425.395 221.119C427.497 221.451 429.434 222.06 431.205 222.945C432.976 223.72 434.138 224.827 434.691 226.266C435.134 227.704 435.411 230.416 435.521 234.4C435.632 238.274 435.577 242.59 435.355 247.35C435.245 251.998 435.079 256.646 434.857 261.295C434.747 265.943 434.691 269.762 434.691 272.75C434.691 273.525 433.917 274.41 432.367 275.406C430.928 276.402 429.268 277.232 427.387 277.896C425.616 278.671 423.956 279.114 422.406 279.225C420.857 279.335 420.027 278.948 419.916 278.062V267.604V262.291C418.145 265.833 415.489 268.987 411.947 271.754C408.406 274.632 403.646 276.07 397.67 276.07ZM494.457 233.902C494.236 238.219 493.461 242.203 492.133 245.855C490.915 249.508 489.2 252.717 486.986 255.484C484.773 258.141 482.117 260.243 479.018 261.793C476.029 263.342 472.709 264.173 469.057 264.283C465.847 264.394 462.803 263.619 459.926 261.959C457.159 260.299 454.724 257.975 452.621 254.986C450.518 251.998 448.913 248.456 447.807 244.361C446.811 240.156 446.534 235.618 446.977 230.748C447.309 225.104 448.36 220.289 450.131 216.305C451.902 212.21 453.783 208.834 455.775 206.178C457.768 203.521 459.594 201.585 461.254 200.367C463.025 199.039 464.132 198.264 464.574 198.043C465.349 197.711 466.068 197.656 466.732 197.877C467.396 197.988 468.116 198.154 468.891 198.375C469.112 198.486 469.333 198.762 469.555 199.205C469.997 199.98 470.274 201.419 470.385 203.521C470.938 202.304 471.658 201.308 472.543 200.533C473.428 199.758 474.314 199.205 475.199 198.873C476.306 198.43 477.413 198.154 478.52 198.043C479.294 197.932 480.622 198.541 482.504 199.869C484.496 201.197 486.378 203.3 488.148 206.178C490.03 209.055 491.635 212.818 492.963 217.467C494.291 222.005 494.789 227.483 494.457 233.902ZM483.168 231.91C483.279 229.254 483.168 226.598 482.836 223.941C482.615 221.174 482.172 218.684 481.508 216.471C480.954 214.146 480.235 212.32 479.35 210.992C478.464 209.553 477.579 208.834 476.693 208.834C475.697 209.055 474.59 209.553 473.373 210.328C472.377 210.992 471.27 212.044 470.053 213.482C468.835 214.921 467.673 216.969 466.566 219.625C466.456 219.293 466.345 218.684 466.234 217.799C466.124 217.024 466.013 216.028 465.902 214.811C465.902 213.482 466.013 211.712 466.234 209.498C464.685 211.38 463.467 213.593 462.582 216.139C461.807 218.684 461.199 221.119 460.756 223.443C460.313 226.21 459.981 228.977 459.76 231.744C459.649 234.732 459.76 237.665 460.092 240.543C460.535 243.421 461.199 245.966 462.084 248.18C463.08 250.393 464.242 252.164 465.57 253.492C466.898 254.82 468.503 255.429 470.385 255.318C472.266 255.208 473.926 254.433 475.365 252.994C476.804 251.555 478.077 249.729 479.184 247.516C480.29 245.302 481.176 242.812 481.84 240.045C482.504 237.278 482.947 234.566 483.168 231.91Z" fill="#F24E1E"/>
</g>
<defs>
<filter id="filter0_d_47_8" x="152" y="0" width="194.667" height="163.457" filterUnits="userSpaceOnUse" color-interpolation-filters="sRGB">
<feFlood flood-opacity="0" result="BackgroundImageFix"/>
<feColorMatrix in="SourceAlpha" type="matrix" values="0 0 0 0 0 0 0 0 0 0 0 0 0 0 0 0 0 0 127 0" result="hardAlpha"/>
<feOffset dy="8"/>
<feGaussianBlur stdDeviation="7"/>
<feComposite in2="hardAlpha" operator="out"/>
<feColorMatrix type="matrix" values="0 0 0 0 0.94902 0 0 0 0 0.305882 0 0 0 0 0.117647 0 0 0 0.25 0"/>
<feBlend mode="normal" in2="BackgroundImageFix" result="effect1_dropShadow_47_8"/>
<feBlend mode="normal" in="SourceGraphic" in2="effect1_dropShadow_47_8" result="shape"/>
</filter>
<filter id="filter1_d_47_8" x="0.316406" y="143.732" width="341.936" height="183.391" filterUnits="userSpaceOnUse" color-interpolation-filters="sRGB">
<feFlood flood-opacity="0" result="BackgroundImageFix"/>
<feColorMatrix in="SourceAlpha" type="matrix" values="0 0 0 0 0 0 0 0 0 0 0 0 0 0 0 0 0 0 127 0" result="hardAlpha"/>
<feOffset dy="8"/>
<feGaussianBlur stdDeviation="7"/>
<feComposite in2="hardAlpha" operator="out"/>
<feColorMatrix type="matrix" values="0 0 0 0 0.94902 0 0 0 0 0.305882 0 0 0 0 0.117647 0 0 0 0.25 0"/>
<feBlend mode="normal" in2="BackgroundImageFix" result="effect1_dropShadow_47_8"/>
<feBlend mode="normal" in="SourceGraphic" in2="effect1_dropShadow_47_8" result="shape"/>
</filter>
<filter id="filter2_d_47_8" x="346.316" y="143.234" width="162.639" height="158.156" filterUnits="userSpaceOnUse" color-interpolation-filters="sRGB">
<feFlood flood-opacity="0" result="BackgroundImageFix"/>
<feColorMatrix in="SourceAlpha" type="matrix" values="0 0 0 0 0 0 0 0 0 0 0 0 0 0 0 0 0 0 127 0" result="hardAlpha"/>
<feOffset dy="8"/>
<feGaussianBlur stdDeviation="7"/>
<feComposite in2="hardAlpha" operator="out"/>
<feColorMatrix type="matrix" values="0 0 0 0 0.94902 0 0 0 0 0.305882 0 0 0 0 0.117647 0 0 0 0.25 0"/>
<feBlend mode="normal" in2="BackgroundImageFix" result="effect1_dropShadow_47_8"/>
<feBlend mode="normal" in="SourceGraphic" in2="effect1_dropShadow_47_8" result="shape"/>
</filter>
</defs>
</svg>
