<svg width="732" height="219" viewBox="0 0 732 219" fill="none" xmlns="http://www.w3.org/2000/svg">
<g filter="url(#filter0_d_10_10)">
<path d="M97.3335 133.333C111.141 133.333 122.333 122.14 122.333 108.333C122.333 94.5262 111.141 83.3333 97.3335 83.3333C83.5264 83.3333 72.3335 94.5262 72.3335 108.333C72.3335 122.14 83.5264 133.333 97.3335 133.333Z" fill="#F24E1E"/>
<path d="M164 41.6667H137.583L127.25 30.4167C125.697 28.7116 123.805 27.3492 121.696 26.4166C119.587 25.4839 117.306 25.0014 115 25H79.6667C75 25 70.5 27 67.3333 30.4167L57.0833 41.6667H30.6667C21.5 41.6667 14 49.1667 14 58.3333L21.5 108.333L14 158.333C14 167.5 21.5 175 30.6667 175L97.3333 165.5L164 175C173.167 175 180.667 167.5 180.667 158.333L173 108.333L180.667 58.3333C180.667 49.1667 173.167 41.6667 164 41.6667ZM97.3333 150C74.3333 150 55.6667 131.333 55.6667 108.333C55.6667 85.3333 74.3333 66.6667 97.3333 66.6667C120.333 66.6667 139 85.3333 139 108.333C139 131.333 120.333 150 97.3333 150Z" fill="#F24E1E"/>
</g>
<g filter="url(#filter1_d_10_10)">
<path d="M260.891 123.951C259.009 125.501 257.958 128.268 257.736 132.252C257.626 136.126 258.29 140.11 259.729 144.205C261.278 148.189 263.602 151.731 266.701 154.83C269.8 157.929 273.674 159.479 278.322 159.479C281.311 159.479 283.856 158.759 285.959 157.32C288.173 155.882 289.943 154.111 291.271 152.008C292.71 149.794 293.762 147.359 294.426 144.703C295.09 142.047 295.422 139.446 295.422 136.9C295.422 133.248 294.702 130.204 293.264 127.77C291.936 125.335 290.109 123.232 287.785 121.461C285.572 119.579 282.971 118.03 279.982 116.812C277.105 115.484 274.172 114.156 271.184 112.828C268.417 111.721 265.096 110.338 261.223 108.678C257.349 106.907 253.641 104.638 250.1 101.871C246.558 98.9935 243.514 95.5072 240.969 91.4121C238.534 87.2064 237.316 82.0599 237.316 75.9727C237.316 71.9883 238.368 67.9486 240.471 63.8535C242.574 59.7585 245.562 56.0508 249.436 52.7305C253.309 49.2995 257.958 46.5326 263.381 44.4297C268.915 42.3268 275.113 41.2754 281.975 41.2754C288.726 41.2754 294.204 41.8841 298.41 43.1016C302.616 44.319 305.881 45.9238 308.205 47.916C310.529 49.7975 312.079 51.9004 312.854 54.2246C313.739 56.4382 314.182 58.541 314.182 60.5332C314.182 62.5254 313.573 64.5729 312.355 66.6758C311.138 68.668 309.699 70.5495 308.039 72.3203C306.379 73.9805 304.663 75.4746 302.893 76.8027C301.122 78.0202 299.683 78.8503 298.576 79.293C299.13 77.8542 299.683 75.862 300.236 73.3164C300.79 70.7708 300.624 68.2253 299.738 65.6797C298.964 63.1341 297.027 60.9206 293.928 59.0391C290.939 57.1576 286.07 56.2168 279.318 56.2168C275.445 56.2168 271.682 56.8255 268.029 58.043C264.377 59.2604 261.112 60.8652 258.234 62.8574C255.467 64.7389 253.254 66.8971 251.594 69.332C249.934 71.7669 249.104 74.2572 249.104 76.8027C249.104 79.2376 249.934 81.5065 251.594 83.6094C253.365 85.6016 255.689 87.5384 258.566 89.4199C261.555 91.1908 264.93 92.9616 268.693 94.7324C272.567 96.5033 276.607 98.2741 280.812 100.045C284.908 101.816 288.947 103.753 292.932 105.855C296.916 107.848 300.458 110.172 303.557 112.828C306.766 115.484 309.312 118.473 311.193 121.793C313.075 125.113 314.016 128.932 314.016 133.248C314.016 137.896 313.13 142.379 311.359 146.695C309.699 150.901 307.264 154.609 304.055 157.818C300.956 161.028 297.137 163.574 292.6 165.455C288.062 167.447 282.915 168.443 277.16 168.443C272.069 168.443 267.255 167.613 262.717 165.953C258.179 164.293 254.195 162.135 250.764 159.479C247.443 156.822 244.787 153.889 242.795 150.68C240.803 147.47 239.807 144.316 239.807 141.217C239.807 137.896 240.526 135.074 241.965 132.75C243.514 130.426 245.396 128.6 247.609 127.271C249.823 125.833 252.092 124.837 254.416 124.283C256.851 123.73 259.009 123.619 260.891 123.951ZM398.02 88.4238C403.332 88.4238 405.435 91.7995 404.328 98.5508C403.885 101.428 403.111 105.302 402.004 110.172C400.897 115.042 399.514 120.133 397.854 125.445C396.193 130.647 394.257 135.738 392.043 140.719C389.94 145.699 387.616 149.794 385.07 153.004C382.746 154.111 380.754 154.775 379.094 154.996C378.208 155.217 377.434 155.273 376.77 155.162C375.884 155.162 375.054 155.051 374.279 154.83C373.505 154.609 372.73 154.166 371.955 153.502C371.291 152.838 370.627 151.842 369.963 150.514C369.41 149.186 368.967 147.359 368.635 145.035C368.081 141.604 367.251 137.896 366.145 133.912C365.148 129.928 364.097 126.275 362.99 122.955C361.994 125.943 360.943 128.987 359.836 132.086C358.84 135.074 357.788 137.896 356.682 140.553C355.686 143.209 354.689 145.589 353.693 147.691C352.697 149.794 351.757 151.399 350.871 152.506C347.219 154.166 344.562 155.162 342.902 155.494C341.906 155.826 341.076 155.937 340.412 155.826C338.199 152.949 336.262 149.905 334.602 146.695C332.941 143.375 331.613 140.276 330.617 137.398C329.4 134.078 328.404 130.758 327.629 127.438C326.743 123.232 326.135 119.192 325.803 115.318C325.471 111.445 325.139 107.903 324.807 104.693C324.585 101.373 324.253 98.4954 323.811 96.0605C323.479 93.6257 322.814 91.6888 321.818 90.25C322.814 89.4753 323.977 88.7559 325.305 88.0918C326.633 87.3171 328.016 86.8743 329.455 86.7637C330.894 86.5423 332.333 86.653 333.771 87.0957C335.321 87.4277 336.815 88.2578 338.254 89.5859C338.475 92.4635 338.641 95.2858 338.752 98.0527C338.863 100.709 338.973 103.144 339.084 105.357C339.195 107.903 339.25 110.283 339.25 112.496C339.361 115.263 339.471 118.196 339.582 121.295C339.803 124.394 340.08 127.438 340.412 130.426C340.744 133.414 341.242 136.236 341.906 138.893C342.681 141.438 343.677 143.596 344.895 145.367C346.112 143.375 347.827 140.11 350.041 135.572C352.255 130.924 354.081 125.113 355.52 118.141C356.073 115.263 356.405 112.385 356.516 109.508C356.737 106.63 356.737 104.029 356.516 101.705C356.405 99.2702 356.184 97.1673 355.852 95.3965C355.63 93.515 355.354 92.1868 355.021 91.4121C355.907 90.8587 356.848 90.4714 357.844 90.25C358.84 89.918 359.781 89.6413 360.666 89.4199C361.662 89.1986 362.603 89.0879 363.488 89.0879C366.366 88.8665 368.303 89.4199 369.299 90.748C370.406 91.9655 370.682 94.2897 370.129 97.7207C370.018 98.6061 369.742 99.9896 369.299 101.871C368.856 103.642 368.303 105.8 367.639 108.346C368.303 110.559 369.077 113.382 369.963 116.812C370.848 120.133 371.734 123.398 372.619 126.607C373.283 129.706 373.947 132.861 374.611 136.07C375.275 139.28 375.829 142.102 376.271 144.537C376.825 144.426 377.378 144.205 377.932 143.873C378.485 143.541 378.983 142.932 379.426 142.047C379.868 141.272 380.477 139.999 381.252 138.229C382.027 136.458 382.857 134.299 383.742 131.754C384.628 129.208 385.458 126.386 386.232 123.287C387.118 120.188 387.893 116.868 388.557 113.326C389.774 106.243 390.217 101.096 389.885 97.8867C389.663 94.6771 389.055 92.5189 388.059 91.4121C389.165 90.6374 390.272 90.084 391.379 89.752C392.596 89.3092 393.703 88.9772 394.699 88.7559C395.917 88.5345 397.023 88.4238 398.02 88.4238ZM413.459 95.2305C413.459 94.5664 414.344 93.847 416.115 93.0723C417.886 92.2975 419.823 91.6888 421.926 91.2461C424.139 90.6927 426.132 90.416 427.902 90.416C429.784 90.3053 430.725 90.6927 430.725 91.5781C430.725 93.2383 430.614 95.6178 430.393 98.7168C430.171 101.705 429.895 104.915 429.562 108.346C429.23 111.666 428.898 115.042 428.566 118.473C428.234 121.793 428.013 124.615 427.902 126.939C427.681 129.374 427.46 132.031 427.238 134.908C427.017 137.343 426.851 140.055 426.74 143.043C426.63 146.031 426.63 149.075 426.74 152.174C426.74 152.727 426.187 153.281 425.08 153.834C423.973 154.387 422.756 154.775 421.428 154.996C420.1 155.328 418.827 155.494 417.609 155.494C416.392 155.494 415.728 155.273 415.617 154.83C415.396 154.387 415.174 153.613 414.953 152.506C414.732 151.399 414.51 149.85 414.289 147.857C414.068 145.755 413.902 143.098 413.791 139.889C413.68 136.568 413.736 132.584 413.957 127.936C414.4 118.749 414.455 111.666 414.123 106.686C413.791 101.594 413.57 97.776 413.459 95.2305ZM425.08 62.1934C427.294 62.1934 429.396 62.8574 431.389 64.1855C433.381 65.5137 434.377 67.2845 434.377 69.498C434.377 71.1582 433.934 72.763 433.049 74.3125C432.274 75.862 431.278 77.2454 430.061 78.4629C428.843 79.6803 427.46 80.6764 425.91 81.4512C424.361 82.1152 422.922 82.4473 421.594 82.4473C419.823 82.4473 418.384 82.1706 417.277 81.6172C416.171 80.9531 415.285 80.2337 414.621 79.459C414.068 78.5736 413.68 77.6328 413.459 76.6367C413.238 75.6406 413.127 74.6999 413.127 73.8145C413.127 72.7077 413.293 71.4902 413.625 70.1621C413.957 68.7233 414.566 67.4505 415.451 66.3438C416.337 65.1263 417.554 64.1302 419.104 63.3555C420.653 62.5807 422.645 62.1934 425.08 62.1934ZM420.93 77.6328C421.594 77.6328 422.313 77.4115 423.088 76.9688C423.973 76.4154 424.748 75.8066 425.412 75.1426C426.187 74.4785 426.796 73.7591 427.238 72.9844C427.792 72.2096 428.068 71.5456 428.068 70.9922C428.068 70.1068 427.626 69.6641 426.74 69.6641C426.187 69.6641 425.467 69.8854 424.582 70.3281C423.807 70.7708 423.033 71.3242 422.258 71.9883C421.483 72.5417 420.819 73.2057 420.266 73.9805C419.823 74.6445 419.602 75.3086 419.602 75.9727C419.602 77.0794 420.044 77.6328 420.93 77.6328ZM474.553 88.2578C477.652 88.2578 480.529 89.1432 483.186 90.9141C485.842 92.6849 488.111 95.0091 489.992 97.8867C491.874 100.764 493.368 104.085 494.475 107.848C495.581 111.5 496.135 115.318 496.135 119.303C496.135 123.287 495.692 127.493 494.807 131.92C493.921 136.347 492.538 140.442 490.656 144.205C488.775 147.968 486.34 151.122 483.352 153.668C480.363 156.103 476.711 157.32 472.395 157.32C468.964 157.32 465.699 156.103 462.6 153.668C459.611 151.122 457.287 147.968 455.627 144.205C455.406 148.079 454.908 152.008 454.133 155.992C453.358 160.087 452.971 164.957 452.971 170.602C452.971 172.262 453.026 174.143 453.137 176.246C453.247 178.349 453.413 180.452 453.635 182.555C453.856 184.658 454.188 186.594 454.631 188.365C455.074 190.136 455.572 191.52 456.125 192.516C454.243 193.622 452.528 194.452 450.979 195.006C449.54 195.559 448.267 195.947 447.16 196.168C445.943 196.5 444.781 196.666 443.674 196.666C442.235 196.666 441.294 196.057 440.852 194.84C440.409 193.622 440.188 191.464 440.188 188.365C440.188 186.373 440.243 183.495 440.354 179.732C440.575 176.08 440.796 171.874 441.018 167.115C441.35 162.356 441.626 157.376 441.848 152.174C442.18 146.861 442.456 141.66 442.678 136.568C443.01 131.477 443.231 126.773 443.342 122.457C443.563 118.03 443.674 114.322 443.674 111.334C443.674 107.682 443.618 104.859 443.508 102.867C443.397 100.764 443.231 99.2148 443.01 98.2188C442.899 97.112 442.733 96.3372 442.512 95.8945C442.29 95.4518 442.014 94.9538 441.682 94.4004C442.678 93.6257 443.84 92.9616 445.168 92.4082C446.607 91.7441 447.99 91.3014 449.318 91.0801C450.757 90.748 452.03 90.6374 453.137 90.748C454.354 90.8587 455.295 91.1354 455.959 91.5781C456.512 92.1315 456.9 92.9616 457.121 94.0684C457.453 95.1751 457.73 96.8353 457.951 99.0488C460.054 96.1712 462.434 93.681 465.09 91.5781C467.857 89.3646 471.011 88.2578 474.553 88.2578ZM468.078 147.525C470.07 147.525 471.952 146.585 473.723 144.703C475.604 142.822 477.209 140.442 478.537 137.564C479.976 134.576 481.083 131.311 481.857 127.77C482.743 124.117 483.186 120.52 483.186 116.979C483.186 113.105 482.798 109.951 482.023 107.516C481.359 104.97 480.474 102.978 479.367 101.539C478.371 99.9896 477.264 98.9382 476.047 98.3848C474.94 97.7207 473.944 97.3887 473.059 97.3887C470.956 97.3887 468.964 98.2741 467.082 100.045C465.201 101.705 463.54 103.919 462.102 106.686C460.663 109.342 459.501 112.33 458.615 115.65C457.84 118.971 457.453 122.291 457.453 125.611C457.453 128.71 457.73 131.588 458.283 134.244C458.947 136.9 459.777 139.225 460.773 141.217C461.77 143.209 462.876 144.758 464.094 145.865C465.422 146.972 466.75 147.525 468.078 147.525ZM528.01 155.826C520.262 155.826 514.286 153.225 510.08 148.023C505.874 142.822 503.771 136.015 503.771 127.604C503.771 121.738 504.602 116.259 506.262 111.168C508.033 105.966 510.357 101.484 513.234 97.7207C516.112 93.9577 519.432 91.0247 523.195 88.9219C527.069 86.7083 531.109 85.6016 535.314 85.6016C539.41 85.6016 542.896 87.0957 545.773 90.084C548.651 92.9616 550.09 97.112 550.09 102.535C550.09 106.077 549.315 109.618 547.766 113.16C546.216 116.591 544.169 119.69 541.623 122.457C539.188 125.113 536.477 127.271 533.488 128.932C530.5 130.592 527.622 131.422 524.855 131.422C523.085 131.422 521.59 131.201 520.373 130.758C519.156 130.315 518.049 129.651 517.053 128.766C517.385 135.074 518.768 139.501 521.203 142.047C523.638 144.482 526.792 145.699 530.666 145.699C533.322 145.699 535.646 145.146 537.639 144.039C539.742 142.932 541.512 141.66 542.951 140.221C544.39 138.782 545.552 137.343 546.438 135.904C547.323 134.355 547.932 133.193 548.264 132.418C548.596 131.754 549.149 131.422 549.924 131.422C550.809 131.422 551.252 132.086 551.252 133.414C551.252 134.632 550.809 136.513 549.924 139.059C549.149 141.493 547.821 143.984 545.939 146.529C544.058 148.964 541.623 151.122 538.635 153.004C535.757 154.885 532.215 155.826 528.01 155.826ZM535.646 92.7402C534.982 92.7402 533.71 93.4596 531.828 94.8984C530.057 96.2266 528.12 98.2188 526.018 100.875C524.025 103.531 522.144 106.741 520.373 110.504C518.713 114.156 517.661 118.307 517.219 122.955C523.859 121.406 529.117 118.971 532.99 115.65C536.864 112.33 538.801 107.46 538.801 101.041C538.801 97.8314 538.413 95.6732 537.639 94.5664C536.864 93.349 536.2 92.7402 535.646 92.7402Z" fill="black"/>
</g>
<g filter="url(#filter2_d_10_10)">
<path d="M620.67 167.613C615.468 167.613 610.598 166.23 606.061 163.463C601.633 160.696 597.704 156.712 594.273 151.51C590.842 146.308 588.131 139.999 586.139 132.584C584.257 125.058 583.316 116.591 583.316 107.184C583.316 97.776 584.589 89.0326 587.135 80.9531C589.68 72.8737 593.056 65.8457 597.262 59.8691C601.467 53.8926 606.337 49.2441 611.871 45.9238C617.516 42.4928 623.326 40.7773 629.303 40.7773C635.39 40.7773 640.37 41.6074 644.244 43.2676C648.118 44.9277 651.161 47.1966 653.375 50.0742C655.589 52.8411 657.083 56.1061 657.857 59.8691C658.632 63.6322 658.909 67.5612 658.688 71.6562C658.577 74.3125 658.023 77.0241 657.027 79.791C656.031 82.4473 654.814 84.8268 653.375 86.9297C651.936 89.0326 650.387 90.6374 648.727 91.7441C647.066 92.8509 645.462 93.0723 643.912 92.4082C642.695 92.0762 641.367 91.6888 639.928 91.2461C637.271 90.3607 634.117 89.0879 630.465 87.4277C632.678 85.8783 634.726 84.1074 636.607 82.1152C638.157 80.3444 639.54 78.1862 640.758 75.6406C642.086 73.0951 642.75 70.1621 642.75 66.8418C642.75 63.9642 642.363 61.5293 641.588 59.5371C640.924 57.4342 639.983 55.7741 638.766 54.5566C637.659 53.2285 636.386 52.2878 634.947 51.7344C633.508 51.0703 632.07 50.7383 630.631 50.7383C626.979 50.7383 623.326 52.1771 619.674 55.0547C616.132 57.9323 612.923 61.972 610.045 67.1738C607.278 72.265 605.009 78.3522 603.238 85.4355C601.467 92.5189 600.582 100.211 600.582 108.512C600.582 115.042 601.191 121.129 602.408 126.773C603.736 132.307 605.452 137.122 607.555 141.217C609.658 145.201 612.092 148.355 614.859 150.68C617.737 152.893 620.781 154 623.99 154C626.425 154 628.749 153.336 630.963 152.008C633.176 150.68 635.058 148.854 636.607 146.529C638.157 144.205 639.374 141.383 640.26 138.062C641.256 134.742 641.754 131.09 641.754 127.105C641.754 123.453 641.643 120.631 641.422 118.639C641.311 116.536 641.145 114.986 640.924 113.99C640.813 112.883 640.647 112.219 640.426 111.998C640.315 111.777 640.26 111.666 640.26 111.666C640.37 111.666 641.256 111.721 642.916 111.832C644.576 111.943 646.402 112.219 648.395 112.662C650.497 112.994 652.434 113.603 654.205 114.488C655.976 115.263 657.138 116.37 657.691 117.809C658.134 119.247 658.411 121.959 658.521 125.943C658.632 129.817 658.577 134.133 658.355 138.893C658.245 143.541 658.079 148.189 657.857 152.838C657.747 157.486 657.691 161.305 657.691 164.293C657.691 165.068 656.917 165.953 655.367 166.949C653.928 167.945 652.268 168.775 650.387 169.439C648.616 170.214 646.956 170.657 645.406 170.768C643.857 170.878 643.027 170.491 642.916 169.605V159.146V153.834C641.145 157.376 638.489 160.53 634.947 163.297C631.406 166.174 626.646 167.613 620.67 167.613ZM717.457 125.445C717.236 129.762 716.461 133.746 715.133 137.398C713.915 141.051 712.2 144.26 709.986 147.027C707.773 149.684 705.117 151.786 702.018 153.336C699.029 154.885 695.709 155.715 692.057 155.826C688.847 155.937 685.803 155.162 682.926 153.502C680.159 151.842 677.724 149.518 675.621 146.529C673.518 143.541 671.913 139.999 670.807 135.904C669.811 131.699 669.534 127.161 669.977 122.291C670.309 116.646 671.36 111.832 673.131 107.848C674.902 103.753 676.783 100.377 678.775 97.7207C680.768 95.0645 682.594 93.1276 684.254 91.9102C686.025 90.582 687.132 89.8073 687.574 89.5859C688.349 89.2539 689.068 89.1986 689.732 89.4199C690.396 89.5306 691.116 89.6966 691.891 89.918C692.112 90.0286 692.333 90.3053 692.555 90.748C692.997 91.5228 693.274 92.9616 693.385 95.0645C693.938 93.847 694.658 92.8509 695.543 92.0762C696.428 91.3014 697.314 90.748 698.199 90.416C699.306 89.9733 700.413 89.6966 701.52 89.5859C702.294 89.4753 703.622 90.084 705.504 91.4121C707.496 92.7402 709.378 94.8431 711.148 97.7207C713.03 100.598 714.635 104.361 715.963 109.01C717.291 113.548 717.789 119.026 717.457 125.445ZM706.168 123.453C706.279 120.797 706.168 118.141 705.836 115.484C705.615 112.717 705.172 110.227 704.508 108.014C703.954 105.689 703.235 103.863 702.35 102.535C701.464 101.096 700.579 100.377 699.693 100.377C698.697 100.598 697.59 101.096 696.373 101.871C695.377 102.535 694.27 103.587 693.053 105.025C691.835 106.464 690.673 108.512 689.566 111.168C689.456 110.836 689.345 110.227 689.234 109.342C689.124 108.567 689.013 107.571 688.902 106.354C688.902 105.025 689.013 103.255 689.234 101.041C687.685 102.923 686.467 105.136 685.582 107.682C684.807 110.227 684.199 112.662 683.756 114.986C683.313 117.753 682.981 120.52 682.76 123.287C682.649 126.275 682.76 129.208 683.092 132.086C683.535 134.964 684.199 137.509 685.084 139.723C686.08 141.936 687.242 143.707 688.57 145.035C689.898 146.363 691.503 146.972 693.385 146.861C695.266 146.751 696.926 145.976 698.365 144.537C699.804 143.098 701.077 141.272 702.184 139.059C703.29 136.845 704.176 134.355 704.84 131.588C705.504 128.821 705.947 126.109 706.168 123.453Z" fill="#F24E1E"/>
</g>
<defs>
<filter id="filter0_d_10_10" x="0" y="19" width="194.667" height="178" filterUnits="userSpaceOnUse" color-interpolation-filters="sRGB">
<feFlood flood-opacity="0" result="BackgroundImageFix"/>
<feColorMatrix in="SourceAlpha" type="matrix" values="0 0 0 0 0 0 0 0 0 0 0 0 0 0 0 0 0 0 127 0" result="hardAlpha"/>
<feOffset dy="8"/>
<feGaussianBlur stdDeviation="7"/>
<feComposite in2="hardAlpha" operator="out"/>
<feColorMatrix type="matrix" values="0 0 0 0 0.94902 0 0 0 0 0.305882 0 0 0 0 0.117647 0 0 0 0.25 0"/>
<feBlend mode="normal" in2="BackgroundImageFix" result="effect1_dropShadow_10_10"/>
<feBlend mode="normal" in="SourceGraphic" in2="effect1_dropShadow_10_10" result="shape"/>
</filter>
<filter id="filter1_d_10_10" x="223.316" y="35.2754" width="341.936" height="183.391" filterUnits="userSpaceOnUse" color-interpolation-filters="sRGB">
<feFlood flood-opacity="0" result="BackgroundImageFix"/>
<feColorMatrix in="SourceAlpha" type="matrix" values="0 0 0 0 0 0 0 0 0 0 0 0 0 0 0 0 0 0 127 0" result="hardAlpha"/>
<feOffset dy="8"/>
<feGaussianBlur stdDeviation="7"/>
<feComposite in2="hardAlpha" operator="out"/>
<feColorMatrix type="matrix" values="0 0 0 0 0.94902 0 0 0 0 0.305882 0 0 0 0 0.117647 0 0 0 0.25 0"/>
<feBlend mode="normal" in2="BackgroundImageFix" result="effect1_dropShadow_10_10"/>
<feBlend mode="normal" in="SourceGraphic" in2="effect1_dropShadow_10_10" result="shape"/>
</filter>
<filter id="filter2_d_10_10" x="569.316" y="34.7773" width="162.639" height="158.156" filterUnits="userSpaceOnUse" color-interpolation-filters="sRGB">
<feFlood flood-opacity="0" result="BackgroundImageFix"/>
<feColorMatrix in="SourceAlpha" type="matrix" values="0 0 0 0 0 0 0 0 0 0 0 0 0 0 0 0 0 0 127 0" result="hardAlpha"/>
<feOffset dy="8"/>
<feGaussianBlur stdDeviation="7"/>
<feComposite in2="hardAlpha" operator="out"/>
<feColorMatrix type="matrix" values="0 0 0 0 0.94902 0 0 0 0 0.305882 0 0 0 0 0.117647 0 0 0 0.25 0"/>
<feBlend mode="normal" in2="BackgroundImageFix" result="effect1_dropShadow_10_10"/>
<feBlend mode="normal" in="SourceGraphic" in2="effect1_dropShadow_10_10" result="shape"/>
</filter>
</defs>
</svg>
